#N canvas 0 22 450 300 10;
#X obj 22 325 spigot;
#X obj 533 18 inlet;
#X obj 27 18 inlet;
#X obj 22 418 outlet;
#X obj 87 325 spigot;
#X obj 92 18 inlet;
#X obj 146 325 spigot;
#X obj 151 18 inlet;
#X obj 204 325 spigot;
#X obj 209 18 inlet;
#X obj 273 325 spigot;
#X obj 278 18 inlet;
#X obj 349 120 == 0;
#X obj 398 120 == 1;
#X obj 440 120 == 2;
#X obj 485 120 == 3;
#X obj 528 120 == 4;
#X connect 0 0 3 0;
#X connect 1 0 12 0;
#X connect 1 0 13 0;
#X connect 1 0 14 0;
#X connect 1 0 15 0;
#X connect 1 0 16 0;
#X connect 2 0 0 0;
#X connect 4 0 3 0;
#X connect 5 0 4 0;
#X connect 6 0 3 0;
#X connect 7 0 6 0;
#X connect 8 0 3 0;
#X connect 9 0 8 0;
#X connect 10 0 3 0;
#X connect 11 0 10 0;
#X connect 12 0 0 1;
#X connect 13 0 4 1;
#X connect 14 0 6 1;
#X connect 15 0 8 1;
#X connect 16 0 10 1;
